# 3ds Max Wavefront OBJ Exporter v0.97b - (c)2007 guruware
# File Created: 21.01.2018 12:19:08

#
# object Object005
#

v  0.0000 0.0000 -2.1000
v  0.0000 2.0000 -2.1000
v  0.0000 0.0000 -13.9300
v  0.0000 2.0000 -13.9300
v  0.5600 0.0000 -0.6300
v  0.5600 2.0000 -0.6300
v  0.5600 0.0000 -15.4700
v  2.0300 0.0000 -16.0300
v  3.5700 0.0000 -15.4700
v  4.2000 0.0000 -13.9300
v  4.2000 0.0000 -4.2700
v  8.6800 0.0000 -4.2700
v  8.6800 0.0000 -11.2000
v  8.9600 0.0000 -13.0900
v  10.0100 0.0000 -14.6300
v  11.5500 0.0000 -15.6800
v  13.3700 0.0000 -16.0300
v  12.8100 0.0000 -11.7600
v  16.8700 0.0000 -16.0300
v  17.3600 0.0000 -11.7600
v  20.1600 0.0000 -14.6300
v  21.2100 0.0000 -13.0900
v  18.6900 0.0000 -15.6800
v  21.5600 0.0000 -11.2000
v  21.5600 0.0000 -2.1000
v  17.3600 0.0000 -2.1000
v  17.9200 0.0000 -0.5600
v  21.0000 0.0000 -0.5600
v  19.4600 0.0000 -0.0000
v  12.8100 0.0000 -2.1000
v  12.1800 0.0000 -0.6300
v  10.7100 0.0000 -0.0000
v  2.0300 0.0000 -0.0000
v  0.5600 2.0000 -15.4700
v  4.2000 2.0000 -4.2700
v  2.0300 2.0000 -0.0000
v  8.6800 2.0000 -4.2700
v  10.7100 2.0000 -0.0000
v  8.6800 2.0000 -11.2000
v  12.1800 2.0000 -0.6300
v  12.8100 2.0000 -2.1000
v  17.9200 2.0000 -0.5600
v  17.3600 2.0000 -11.7600
v  17.3600 2.0000 -2.1000
v  19.4600 2.0000 -0.0000
v  21.0000 2.0000 -0.5600
v  21.5600 2.0000 -2.1000
v  21.5600 2.0000 -11.2000
v  21.2100 2.0000 -13.0900
v  8.9600 2.0000 -13.0900
v  12.8100 2.0000 -11.7600
v  13.3700 2.0000 -16.0300
v  11.5500 2.0000 -15.6800
v  16.8700 2.0000 -16.0300
v  18.6900 2.0000 -15.6800
v  10.0100 2.0000 -14.6300
v  20.1600 2.0000 -14.6300
v  4.2000 2.0000 -13.9300
v  3.5700 2.0000 -15.4700
v  2.0300 2.0000 -16.0300
# 60 vertices

vn -0.9835 0.0000 0.1810
vn -0.9848 0.0000 -0.1735
vn -0.9848 -0.0000 -0.1735
vn -0.9345 0.0000 0.3560
vn -0.9345 -0.0000 0.3560
vn 0.0000 -1.0000 -0.0000
vn -0.9398 -0.0000 -0.3417
vn 0.0000 1.0000 -0.0000
vn -0.3939 0.0000 0.9191
vn -0.3939 -0.0000 0.9191
vn -0.2011 -0.0000 0.9796
vn -0.2011 0.0000 0.9796
vn 0.2011 -0.0000 0.9796
vn 0.3939 -0.0000 0.9191
vn 0.9191 0.0000 0.3939
vn 0.9191 -0.0000 0.3939
vn 0.9796 0.0000 0.2011
vn 1.0000 0.0000 -0.0000
vn 0.0000 -0.0000 1.0000
vn -0.9848 0.0000 0.1735
vn -1.0000 0.0000 -0.0000
vn -0.9398 0.0000 0.3417
vn -0.3417 0.0000 0.9398
vn 0.3417 0.0000 0.9398
vn 0.9398 0.0000 0.3417
vn 0.9848 0.0000 0.1735
vn 0.9958 0.0000 -0.0914
vn 0.9246 0.0000 -0.3809
vn 0.7148 0.0000 -0.6993
vn 0.3941 -0.0000 -0.9191
vn 0.0949 0.0000 -0.9955
vn 0.0949 -0.0000 -0.9955
vn -0.0949 0.0000 -0.9955
vn -0.3841 0.0000 -0.9233
vn -0.7071 0.0000 -0.7071
vn -0.9313 0.0000 -0.3642
vn -0.9973 0.0000 -0.0735
vn -0.0000 -0.0000 -1.0000
vn 0.0000 0.0000 -1.0000
vn 0.9812 0.0000 -0.1929
vn 0.9255 0.0000 -0.3786
vn 0.3417 0.0000 -0.9398
vn -0.3560 -0.0000 -0.9345
vn -0.3560 0.0000 -0.9345
# 44 vertex normals

g Object005
s 1
f 1//1 2//1 3//2 
f 3//2 2//1 4//3 
f 1//1 5//4 2//1 
f 2//1 5//4 6//5 
s 2
f 1//6 3//6 5//6 
f 5//6 3//6 7//6 
f 5//6 7//6 8//6 
f 5//6 8//6 9//6 
f 5//6 9//6 10//6 
f 5//6 10//6 11//6 
f 5//6 11//6 12//6 
f 12//6 13//6 14//6 
f 12//6 14//6 15//6 
f 15//6 16//6 12//6 
f 12//6 16//6 17//6 
f 18//6 17//6 19//6 
f 20//6 21//6 22//6 
f 18//6 23//6 21//6 
f 18//6 21//6 20//6 
f 20//6 22//6 24//6 
f 20//6 25//6 26//6 
f 27//6 28//6 29//6 
f 18//6 19//6 23//6 
f 12//6 17//6 18//6 
f 30//6 12//6 18//6 
f 31//6 5//6 30//6 
f 12//6 30//6 5//6 
f 20//6 24//6 25//6 
f 5//6 32//6 33//6 
f 26//6 25//6 28//6 
f 26//6 28//6 27//6 
f 32//6 5//6 31//6 
s 1
f 3//2 4//3 7//7 
f 7//7 4//3 34//7 
s 2
f 4//8 2//8 6//8 
f 35//8 4//8 36//8 
f 36//8 4//8 6//8 
f 37//8 35//8 38//8 
f 39//8 40//8 41//8 
f 39//8 37//8 40//8 
f 42//8 43//8 44//8 
f 45//8 43//8 42//8 
f 46//8 43//8 45//8 
f 47//8 43//8 46//8 
f 48//8 43//8 47//8 
f 49//8 43//8 48//8 
f 50//8 51//8 43//8 
f 52//8 53//8 54//8 
f 55//8 56//8 57//8 
f 49//8 50//8 43//8 
f 51//8 39//8 41//8 
f 40//8 37//8 38//8 
f 58//8 59//8 4//8 
f 38//8 35//8 36//8 
f 50//8 39//8 51//8 
f 35//8 58//8 4//8 
f 60//8 4//8 59//8 
f 34//8 4//8 60//8 
f 53//8 55//8 54//8 
f 53//8 56//8 55//8 
f 56//8 49//8 57//8 
f 56//8 50//8 49//8 
s 4
f 6//9 5//10 33//11 
f 36//12 6//9 33//11 
f 36//12 33//11 32//13 
f 38//13 36//12 32//13 
f 38//13 32//13 31//14 
f 40//14 38//13 31//14 
s 1
f 40//15 31//16 30//17 
f 41//17 40//15 30//17 
f 41//17 30//17 18//18 
f 51//18 41//17 18//18 
s 4
f 51//19 18//19 20//19 
f 43//19 51//19 20//19 
s 1
f 26//20 44//20 20//21 
f 20//21 44//20 43//21 
f 26//20 27//22 44//20 
f 44//20 27//22 42//22 
s 4
f 42//23 27//23 29//23 
f 45//23 42//23 29//23 
s 1
f 45//24 29//24 28//24 
f 46//24 45//24 28//24 
s 4
f 46//25 28//25 25//26 
f 47//26 46//25 25//26 
f 47//26 25//26 24//27 
f 48//27 47//26 24//27 
f 24//27 22//28 49//28 
f 48//27 24//27 49//28 
f 22//28 21//29 57//29 
f 49//28 22//28 57//29 
f 23//30 55//30 21//29 
f 21//29 55//30 57//29 
f 19//31 54//32 23//30 
f 23//30 54//32 55//30 
f 17//33 52//33 19//31 
f 19//31 52//33 54//32 
f 16//34 53//34 17//33 
f 17//33 53//34 52//33 
f 15//35 56//35 16//34 
f 16//34 56//35 53//34 
f 14//36 50//36 15//35 
f 15//35 50//36 56//35 
f 13//37 39//37 14//36 
f 14//36 39//37 50//36 
f 12//21 37//21 13//37 
f 13//37 37//21 39//37 
s 1
f 11//38 35//38 12//39 
f 12//39 35//38 37//39 
s 4
f 35//18 11//18 10//40 
f 58//40 35//18 10//40 
f 10//40 9//41 59//41 
f 58//40 10//40 59//41 
s 1
f 8//42 60//42 9//42 
f 9//42 60//42 59//42 
s 4
f 7//43 34//43 8//43 
f 8//43 34//43 60//44 
# 0 polygons - 116 triangles

