# 3ds Max Wavefront OBJ Exporter v0.97b - (c)2007 guruware
# File Created: 21.01.2018 12:19:08

#
# object Object000
#

v  0.0000 0.0000 -4.7600
v  0.0000 2.0000 -4.7600
v  0.0000 0.0000 -10.6400
v  0.0000 2.0000 -10.6400
v  0.3500 0.0000 -2.9400
v  0.3500 2.0000 -2.9400
v  0.3500 0.0000 -12.4600
v  1.4000 0.0000 -14.0000
v  2.8700 0.0000 -15.0500
v  4.6900 0.0000 -15.4000
v  4.2000 0.0000 -11.1300
v  16.8000 0.0000 -15.4000
v  17.3600 0.0000 -11.1300
v  21.2100 0.0000 -12.4600
v  21.5600 0.0000 -10.6400
v  20.1600 0.0000 -14.0000
v  17.3600 0.0000 -4.2700
v  21.5600 0.0000 -4.7600
v  21.2100 0.0000 -2.9400
v  20.1600 0.0000 -1.4000
v  18.6900 0.0000 -0.3500
v  16.8000 0.0000 -0.0000
v  4.6900 0.0000 -0.0000
v  2.8700 0.0000 -0.3500
v  1.4000 0.0000 -1.4000
v  4.2000 0.0000 -4.2700
v  18.6900 0.0000 -15.0500
v  0.3500 2.0000 -12.4600
v  2.8700 2.0000 -0.3500
v  1.4000 2.0000 -1.4000
v  4.6900 2.0000 -0.0000
v  4.2000 2.0000 -4.2700
v  17.3600 2.0000 -11.1300
v  17.3600 2.0000 -4.2700
v  21.2100 2.0000 -2.9400
v  21.5600 2.0000 -4.7600
v  18.6900 2.0000 -15.0500
v  20.1600 2.0000 -14.0000
v  16.8000 2.0000 -15.4000
v  4.6900 2.0000 -15.4000
v  2.8700 2.0000 -15.0500
v  1.4000 2.0000 -14.0000
v  16.8000 2.0000 -0.0000
v  4.2000 2.0000 -11.1300
v  21.2100 2.0000 -12.4600
v  21.5600 2.0000 -10.6400
v  20.1600 2.0000 -1.4000
v  18.6900 2.0000 -0.3500
# 48 vertices

vn -0.9955 0.0000 0.0949
vn -0.9955 0.0000 -0.0949
vn -0.9955 0.0000 -0.0948
vn -0.9233 0.0000 0.3841
vn 0.0000 -1.0000 -0.0000
vn -0.9233 0.0000 -0.3841
vn 0.0000 1.0000 -0.0000
vn -0.7148 0.0000 0.6993
vn -0.3941 0.0000 0.9191
vn -0.0948 0.0000 0.9955
vn 0.0914 -0.0000 0.9958
vn 0.3910 -0.0000 0.9204
vn 0.3910 0.0000 0.9204
vn 0.7148 0.0000 0.6993
vn 0.9233 0.0000 0.3841
vn 0.9955 0.0000 0.0949
vn 0.9955 0.0000 0.0948
vn 0.9955 0.0000 -0.0949
vn 0.9955 -0.0000 -0.0949
vn 0.9233 0.0000 -0.3841
vn 0.7148 0.0000 -0.6993
vn 0.3910 0.0000 -0.9204
vn 0.0914 0.0000 -0.9958
vn -0.0948 0.0000 -0.9955
vn -0.3941 0.0000 -0.9191
vn -0.7148 0.0000 -0.6993
vn 0.0000 -0.0000 1.0000
vn 1.0000 0.0000 -0.0000
vn -1.0000 0.0000 -0.0000
vn 0.0000 0.0000 -1.0000
vn 0.0000 -0.0000 -1.0000
# 31 vertex normals

g Object000
s 1
f 1//1 2//1 3//2 
f 3//2 2//1 4//3 
f 1//1 5//4 2//1 
f 2//1 5//4 6//4 
s 2
f 1//5 3//5 5//5 
f 5//5 3//5 7//5 
f 5//5 7//5 8//5 
f 5//5 8//5 9//5 
f 5//5 9//5 10//5 
f 11//5 10//5 12//5 
f 13//5 14//5 15//5 
f 13//5 16//5 14//5 
f 17//5 18//5 19//5 
f 5//5 19//5 20//5 
f 5//5 20//5 21//5 
f 5//5 21//5 22//5 
f 5//5 22//5 23//5 
f 5//5 23//5 24//5 
f 5//5 24//5 25//5 
f 5//5 10//5 11//5 
f 26//5 5//5 11//5 
f 17//5 5//5 26//5 
f 13//5 18//5 17//5 
f 13//5 15//5 18//5 
f 5//5 17//5 19//5 
f 11//5 12//5 27//5 
f 11//5 27//5 16//5 
f 11//5 16//5 13//5 
s 1
f 3//2 4//3 7//6 
f 7//6 4//3 28//6 
s 2
f 4//7 2//7 6//7 
f 29//7 4//7 30//7 
f 30//7 4//7 6//7 
f 31//7 4//7 29//7 
f 32//7 4//7 31//7 
f 33//7 34//7 35//7 
f 33//7 35//7 36//7 
f 37//7 4//7 38//7 
f 39//7 4//7 37//7 
f 40//7 4//7 39//7 
f 41//7 4//7 40//7 
f 42//7 4//7 41//7 
f 28//7 4//7 42//7 
f 43//7 32//7 31//7 
f 44//7 33//7 45//7 
f 38//7 44//7 45//7 
f 38//7 4//7 44//7 
f 45//7 33//7 46//7 
f 33//7 36//7 46//7 
f 35//7 34//7 47//7 
f 34//7 48//7 47//7 
f 34//7 43//7 48//7 
f 34//7 32//7 43//7 
f 32//7 44//7 4//7 
s 1
f 5//4 25//8 6//4 
f 6//4 25//8 30//8 
f 30//8 25//8 24//9 
f 29//9 30//8 24//9 
f 29//9 24//9 23//10 
f 31//10 29//9 23//10 
f 31//10 23//10 22//11 
f 43//11 31//10 22//11 
f 43//11 22//11 21//12 
f 48//13 43//11 21//12 
f 48//13 21//12 20//14 
f 47//14 48//13 20//14 
f 47//14 20//14 19//15 
f 35//15 47//14 19//15 
f 35//15 19//15 18//16 
f 36//17 35//15 18//16 
f 36//17 18//16 15//18 
f 46//19 36//17 15//18 
f 15//18 14//20 45//20 
f 46//19 15//18 45//20 
f 14//20 16//21 38//21 
f 45//20 14//20 38//21 
f 27//22 37//22 16//21 
f 16//21 37//22 38//21 
f 12//23 39//23 27//22 
f 27//22 39//23 37//22 
f 10//24 40//24 12//23 
f 12//23 40//24 39//23 
f 9//25 41//25 10//24 
f 10//24 41//25 40//24 
f 8//26 42//26 9//25 
f 9//25 42//26 41//25 
f 7//6 28//6 8//26 
f 8//26 28//6 42//26 
f 44//27 11//27 13//27 
f 33//27 44//27 13//27 
s 4
f 32//28 26//28 11//28 
f 44//28 32//28 11//28 
f 17//29 34//29 13//29 
f 13//29 34//29 33//29 
s 1
f 26//30 32//31 17//31 
f 17//31 32//31 34//31 
# 0 polygons - 96 triangles

