# 3ds Max Wavefront OBJ Exporter v0.97b - (c)2007 guruware
# File Created: 21.01.2018 12:19:05

#
# object Object009
#

v  0.0000 0.0000 -4.7600
v  0.0000 2.0000 -4.7600
v  0.0000 0.0000 -11.2000
v  0.0000 2.0000 -11.2000
v  0.3500 0.0000 -2.9400
v  0.3500 2.0000 -2.9400
v  0.3500 0.0000 -13.0900
v  1.3300 0.0000 -14.6300
v  2.8700 0.0000 -15.6800
v  4.6900 0.0000 -16.0300
v  4.2000 0.0000 -11.7600
v  16.8000 0.0000 -16.0300
v  12.8800 0.0000 -11.7600
v  18.6900 0.0000 -15.6800
v  17.3600 0.0000 -11.7600
v  20.1600 0.0000 -14.6300
v  21.2100 0.0000 -13.0900
v  17.3600 0.0000 -2.1000
v  21.5600 0.0000 -2.1000
v  20.9300 0.0000 -0.5600
v  17.9200 0.0000 -0.5600
v  19.4600 0.0000 -0.0000
v  21.5600 0.0000 -11.2000
v  8.6800 0.0000 -11.7600
v  12.8800 0.0000 -4.7600
v  8.6800 0.0000 -4.2700
v  12.5300 0.0000 -2.9400
v  10.0100 0.0000 -0.3500
v  11.4800 0.0000 -1.4000
v  4.1300 0.0000 -4.2700
v  8.1900 0.0000 -0.0000
v  4.6900 0.0000 -0.0000
v  2.8700 0.0000 -0.3500
v  1.4000 0.0000 -1.4000
v  0.3500 2.0000 -13.0900
v  2.8700 2.0000 -0.3500
v  1.4000 2.0000 -1.4000
v  4.6900 2.0000 -0.0000
v  4.1300 2.0000 -4.2700
v  8.6800 2.0000 -11.7600
v  12.8800 2.0000 -4.7600
v  12.8800 2.0000 -11.7600
v  8.6800 2.0000 -4.2700
v  12.5300 2.0000 -2.9400
v  21.2100 2.0000 -13.0900
v  17.3600 2.0000 -11.7600
v  17.9200 2.0000 -0.5600
v  17.3600 2.0000 -2.1000
v  19.4600 2.0000 -0.0000
v  20.9300 2.0000 -0.5600
v  21.5600 2.0000 -2.1000
v  21.5600 2.0000 -11.2000
v  18.6900 2.0000 -15.6800
v  20.1600 2.0000 -14.6300
v  16.8000 2.0000 -16.0300
v  4.6900 2.0000 -16.0300
v  2.8700 2.0000 -15.6800
v  1.3300 2.0000 -14.6300
v  8.1900 2.0000 -0.0000
v  4.2000 2.0000 -11.7600
v  11.4800 2.0000 -1.4000
v  10.0100 2.0000 -0.3500
# 62 vertices

vn -0.9955 0.0000 0.0949
vn -0.9955 -0.0000 0.0949
vn -0.9958 -0.0000 -0.0914
vn -0.9233 -0.0000 0.3841
vn 0.0000 -1.0000 -0.0000
vn -0.9305 -0.0000 -0.3662
vn -0.9305 0.0000 -0.3662
vn 0.0000 1.0000 -0.0000
vn -0.7148 -0.0000 0.6993
vn -0.3941 -0.0000 0.9191
vn -0.3941 0.0000 0.9191
vn -0.0949 0.0000 0.9955
vn 0.0949 0.0000 0.9955
vn 0.3941 0.0000 0.9191
vn 0.7148 0.0000 0.6993
vn 0.7148 -0.0000 0.6993
vn 0.9233 -0.0000 0.3841
vn 0.9955 -0.0000 0.0949
vn 0.9955 0.0000 0.0949
vn 1.0000 0.0000 -0.0000
vn 0.0000 -0.0000 1.0000
vn 0.0000 0.0000 1.0000
vn -0.9848 0.0000 0.1735
vn -1.0000 0.0000 -0.0000
vn -0.9398 0.0000 0.3417
vn -0.3417 0.0000 0.9398
vn 0.3560 0.0000 0.9345
vn 0.9255 0.0000 0.3786
vn 0.9812 0.0000 0.1929
vn 0.9958 0.0000 -0.0914
vn 0.9246 0.0000 -0.3809
vn 0.7148 0.0000 -0.6993
vn 0.3910 0.0000 -0.9204
vn 0.0914 0.0000 -0.9958
vn -0.0949 0.0000 -0.9955
vn -0.3841 0.0000 -0.9233
vn -0.7182 0.0000 -0.6958
vn 1.0000 -0.0000 0.0093
vn 1.0000 0.0000 0.0093
vn 0.0000 0.0000 -1.0000
# 40 vertex normals

g Object009
s 1
f 1//1 2//2 3//3 
f 3//3 2//2 4//3 
f 1//1 5//4 2//2 
f 2//2 5//4 6//4 
s 2
f 1//5 3//5 5//5 
f 5//5 3//5 7//5 
f 5//5 7//5 8//5 
f 5//5 8//5 9//5 
f 5//5 9//5 10//5 
f 11//5 10//5 12//5 
f 13//5 12//5 14//5 
f 15//5 16//5 17//5 
f 13//5 16//5 15//5 
f 18//5 19//5 20//5 
f 21//5 20//5 22//5 
f 15//5 23//5 19//5 
f 15//5 17//5 23//5 
f 13//5 14//5 16//5 
f 24//5 25//5 26//5 
f 24//5 13//5 25//5 
f 5//5 25//5 27//5 
f 28//5 5//5 29//5 
f 24//5 12//5 13//5 
f 30//5 5//5 11//5 
f 5//5 28//5 31//5 
f 5//5 31//5 32//5 
f 5//5 32//5 33//5 
f 5//5 33//5 34//5 
f 5//5 10//5 11//5 
f 24//5 11//5 12//5 
f 5//5 30//5 26//5 
f 5//5 26//5 25//5 
f 18//5 20//5 21//5 
f 15//5 19//5 18//5 
f 29//5 5//5 27//5 
s 1
f 3//3 4//3 7//6 
f 7//6 4//3 35//7 
s 2
f 4//8 2//8 6//8 
f 36//8 4//8 37//8 
f 37//8 4//8 6//8 
f 38//8 4//8 36//8 
f 39//8 4//8 38//8 
f 40//8 41//8 42//8 
f 40//8 43//8 44//8 
f 45//8 42//8 46//8 
f 47//8 46//8 48//8 
f 49//8 46//8 47//8 
f 50//8 46//8 49//8 
f 51//8 46//8 50//8 
f 52//8 46//8 51//8 
f 45//8 46//8 52//8 
f 53//8 4//8 54//8 
f 55//8 4//8 53//8 
f 56//8 4//8 55//8 
f 57//8 4//8 56//8 
f 58//8 4//8 57//8 
f 35//8 4//8 58//8 
f 59//8 39//8 38//8 
f 60//8 40//8 45//8 
f 54//8 60//8 45//8 
f 54//8 4//8 60//8 
f 45//8 40//8 42//8 
f 40//8 44//8 41//8 
f 44//8 43//8 61//8 
f 43//8 62//8 61//8 
f 43//8 59//8 62//8 
f 43//8 39//8 59//8 
f 39//8 60//8 4//8 
s 1
f 5//4 34//9 6//4 
f 6//4 34//9 37//9 
f 37//9 34//9 33//10 
f 36//11 37//9 33//10 
f 36//11 33//10 32//12 
f 38//12 36//11 32//12 
f 38//12 32//12 31//13 
f 59//13 38//12 31//13 
f 59//13 31//13 28//14 
f 62//14 59//13 28//14 
f 62//14 28//14 29//15 
f 61//16 62//14 29//15 
f 61//16 29//15 27//17 
f 44//17 61//16 27//17 
f 44//17 27//17 25//18 
f 41//19 44//17 25//18 
f 41//19 25//18 13//20 
f 42//20 41//19 13//20 
s 4
f 42//21 13//21 15//21 
f 46//22 42//21 15//21 
s 1
f 18//23 48//23 15//24 
f 15//24 48//23 46//24 
f 18//23 21//25 48//23 
f 48//23 21//25 47//25 
s 4
f 47//26 21//26 22//26 
f 49//26 47//26 22//26 
s 8
f 49//27 22//27 20//27 
f 50//27 49//27 20//27 
s 1
f 50//28 20//28 19//29 
f 51//29 50//28 19//29 
f 51//29 19//29 23//30 
f 52//30 51//29 23//30 
f 23//30 17//31 45//31 
f 52//30 23//30 45//31 
f 17//31 16//32 54//32 
f 45//31 17//31 54//32 
f 14//33 53//33 16//32 
f 16//32 53//33 54//32 
f 12//34 55//34 14//33 
f 14//33 55//34 53//33 
f 10//35 56//35 12//34 
f 12//34 56//35 55//34 
f 9//36 57//36 10//35 
f 10//35 57//36 56//35 
f 8//37 58//37 9//36 
f 9//36 58//37 57//36 
f 7//6 35//7 8//37 
f 8//37 35//7 58//37 
f 60//21 11//22 24//21 
f 40//21 60//21 24//21 
s 4
f 39//38 30//38 11//38 
f 60//39 39//38 11//38 
f 26//24 43//24 24//24 
f 24//24 43//24 40//24 
s 1
f 30//40 39//40 26//40 
f 26//40 39//40 43//40 
# 0 polygons - 124 triangles

