# 3ds Max Wavefront OBJ Exporter v0.97b - (c)2007 guruware
# File Created: 21.01.2018 12:19:08

#
# object Object004
#

v  0.0000 0.0000 -2.1000
v  0.0000 2.0000 -2.1000
v  0.5600 0.0000 -3.6400
v  0.5600 2.0000 -3.6400
v  0.5600 0.0000 -0.5600
v  0.5600 2.0000 -0.5600
v  2.1000 0.0000 -4.2700
v  8.6800 0.0000 -4.2700
v  2.1000 0.0000 -11.7600
v  0.5600 0.0000 -12.3200
v  8.6800 0.0000 -11.7600
v  0.0000 0.0000 -13.9300
v  0.5600 0.0000 -15.4000
v  2.1000 0.0000 -16.0300
v  19.4600 0.0000 -16.0300
v  12.8800 0.0000 -2.1000
v  12.8800 0.0000 -11.7600
v  19.4600 0.0000 -11.7600
v  21.5600 0.0000 -13.9300
v  21.0000 0.0000 -12.3200
v  12.2500 0.0000 -0.6300
v  10.7800 0.0000 -0.0000
v  2.1000 0.0000 -0.0000
v  21.0000 0.0000 -15.4000
v  2.1000 2.0000 -4.2700
v  10.7800 2.0000 -0.0000
v  2.1000 2.0000 -0.0000
v  12.2500 2.0000 -0.6300
v  12.8800 2.0000 -2.1000
v  8.6800 2.0000 -4.2700
v  21.0000 2.0000 -12.3200
v  12.8800 2.0000 -11.7600
v  19.4600 2.0000 -11.7600
v  21.5600 2.0000 -13.9300
v  21.0000 2.0000 -15.4000
v  19.4600 2.0000 -16.0300
v  2.1000 2.0000 -16.0300
v  8.6800 2.0000 -11.7600
v  0.5600 2.0000 -15.4000
v  0.5600 2.0000 -12.3200
v  2.1000 2.0000 -11.7600
v  0.0000 2.0000 -13.9300
# 42 vertices

vn -0.9398 0.0000 -0.3417
vn -0.9398 -0.0000 0.3417
vn 0.0000 -1.0000 -0.0000
vn -0.3786 0.0000 -0.9255
vn -0.1929 0.0000 -0.9812
vn 0.0000 1.0000 -0.0000
vn -0.3417 -0.0000 0.9398
vn -0.1735 -0.0000 0.9848
vn -0.1735 0.0000 0.9848
vn 0.2011 0.0000 0.9796
vn 0.3939 0.0000 0.9191
vn 0.9191 0.0000 0.3939
vn 0.9796 0.0000 0.2011
vn 1.0000 0.0000 0.0000
vn 0.0000 0.0000 1.0000
vn 0.1735 0.0000 0.9848
vn 0.3417 0.0000 0.9398
vn 0.9445 0.0000 0.3285
vn 0.9345 0.0000 -0.3560
vn 0.1929 -0.0000 -0.9812
vn 0.1929 0.0000 -0.9812
vn 0.3786 0.0000 -0.9255
vn -0.1929 -0.0000 -0.9812
vn -0.3786 -0.0000 -0.9255
vn -0.9345 0.0000 -0.3560
vn -0.9445 0.0000 0.3285
vn -0.3417 0.0000 0.9398
vn -1.0000 0.0000 -0.0000
vn 0.0000 0.0000 -1.0000
# 29 vertex normals

g Object004
s 1
f 1//1 2//1 3//1 
f 3//1 2//1 4//1 
s 2
f 1//2 5//2 2//2 
f 2//2 5//2 6//2 
s 4
f 1//3 3//3 5//3 
f 5//3 3//3 7//3 
f 5//3 7//3 8//3 
f 9//3 10//3 11//3 
f 11//3 10//3 12//3 
f 11//3 12//3 13//3 
f 11//3 13//3 14//3 
f 11//3 14//3 15//3 
f 16//3 8//3 17//3 
f 18//3 19//3 20//3 
f 11//3 15//3 17//3 
f 11//3 17//3 8//3 
f 8//3 16//3 5//3 
f 5//3 16//3 21//3 
f 5//3 21//3 22//3 
f 5//3 22//3 23//3 
f 17//3 15//3 24//3 
f 17//3 24//3 19//3 
f 17//3 19//3 18//3 
s 2
f 3//4 4//4 7//5 
f 7//5 4//4 25//5 
s 4
f 4//6 2//6 6//6 
f 26//6 4//6 27//6 
f 27//6 4//6 6//6 
f 28//6 4//6 26//6 
f 29//6 4//6 28//6 
f 30//6 4//6 29//6 
f 31//6 32//6 33//6 
f 34//6 32//6 31//6 
f 35//6 32//6 34//6 
f 36//6 32//6 35//6 
f 37//6 32//6 36//6 
f 38//6 30//6 32//6 
f 39//6 40//6 37//6 
f 37//6 41//6 38//6 
f 37//6 38//6 32//6 
f 32//6 30//6 29//6 
f 25//6 4//6 30//6 
f 42//6 40//6 39//6 
f 40//6 41//6 37//6 
s 1
f 6//7 5//7 23//8 
f 27//9 6//7 23//8 
f 27//9 23//8 22//10 
f 26//10 27//9 22//10 
f 26//10 22//10 21//11 
f 28//11 26//10 21//11 
s 2
f 28//12 21//12 16//13 
f 29//13 28//12 16//13 
f 29//13 16//13 17//14 
f 32//14 29//13 17//14 
s 1
f 32//15 17//15 18//16 
f 33//16 32//15 18//16 
f 33//16 18//16 20//17 
f 31//17 33//16 20//17 
s 2
f 31//18 20//18 19//18 
f 34//18 31//18 19//18 
s 1
f 19//19 24//19 35//19 
f 34//19 19//19 35//19 
s 2
f 15//20 36//21 24//22 
f 24//22 36//21 35//22 
f 14//23 37//23 15//20 
f 15//20 37//23 36//21 
f 13//4 39//24 14//23 
f 14//23 39//24 37//23 
s 1
f 12//25 42//25 13//25 
f 13//25 42//25 39//25 
s 2
f 12//26 10//26 42//26 
f 42//26 10//26 40//26 
s 1
f 40//27 10//27 9//9 
f 41//9 40//27 9//9 
f 41//9 9//9 11//15 
f 38//15 41//9 11//15 
s 8
f 8//28 30//28 11//28 
f 11//28 30//28 38//28 
s 2
f 7//5 25//5 8//29 
f 8//29 25//5 30//29 
# 0 polygons - 80 triangles

